# xmcd CD database file
#
# Track frame offsets:
#	150
#	16676
#	40267
#	51785
#	72976
#	91670
#	108363
#	124837
#	146442
#	160812
#	174385
#	195847
#	209647
#
# Disc length: 2892 seconds
#
# Revision: 3
# Processed by: cddbd v1.5.2PL0 Copyright (c) Steve Scherf et al.
# Submitted via: CDex 1.51
#
DISCID=a60b4a0d
DTITLE=Евгений Маргулис - Best...
DYEAR=2002
DGENRE=Blues
TTITLE0=Шанхай блюз
TTITLE1=Внештатный командир земли
TTITLE2=Я дам тебе знать
TTITLE3=Не плачь обо мне
TTITLE4=Мой друг
TTITLE5=Пусть она станет небом
TTITLE6=ДОМАЖО
TTITLE7=Старые песни
TTITLE8=Всегда одинок
TTITLE9=Проводница
TTITLE10=Ветер все сильней
TTITLE11=Иногда я пою
TTITLE12=Я рядом с тобой
EXTD=YEAR: 2002
EXTT0=
EXTT1=
EXTT2=
EXTT3=
EXTT4=
EXTT5=
EXTT6=
EXTT7=
EXTT8=
EXTT9=
EXTT10=
EXTT11=
EXTT12=
PLAYORDER=
